#!OML:ASF X:\für Bonn\!DataBase\2005_08_10_Bjorn_Final\c3d\bjorn.ASF
:FULLY-SPECIFIED
:DEGREES
447
root -1.26531 1.77067 20.8233 -436.019 -163.944 13.2409
lowerback 25.0555 7.36103 -6.60323
upperback 24.163 2.036 -0.826631
thorax 12.8232 -3.18017 1.59274
lowerneck 7.56889 -11.1207 -2.57088
upperneck 12.2422 -16.9632 6.15054
head 3.59811 -8.90653 2.20586
rclavicle 1.98785e-014 -6.67916e-014
rhumerus -169.293 -172.184 108.649
rradius 28.9733
rwrist -4.95693
rhand -5.56831 11.4893
rfingers 7.12502
rthumb 20.2473 -17.4754
lclavicle 1.98785e-014 -6.67916e-014
lhumerus -343.439 -25.4907 -289.972
lradius 33.1385
lwrist -13.1336
lhand -41.7913 -24.3177
lfingers 7.12502
lthumb -14.6941 5.14158
rfemur -244.055 -147.924 174.045
rtibia 111.005
rfoot 37.2054 10.4164
rtoes -9.25459
lfemur -64.9765 5.92432 -33.7742
ltibia 102.9
lfoot 27.6473 11.1776
ltoes -2.70284
448
root -1.26847 1.76442 20.845 -436.497 -163.985 13.555
lowerback 24.9309 7.29889 -6.64687
upperback 24.1164 2.01842 -0.82489
thorax 12.8249 -3.17126 1.62957
lowerneck 7.77846 -11.08 -2.53356
upperneck 12.4788 -16.9989 6.21898
head 3.65357 -8.94751 2.22685
rclavicle 3.49861e-014 -3.18055e-014
rhumerus -169.449 -171.664 108.638
rradius 28.7314
rwrist -4.47716
rhand -5.68505 11.5811
rfingers 7.12502
rthumb 20.1351 -17.3955
lclavicle 3.49861e-014 -3.18055e-014
lhumerus -343.511 -25.356 -289.933
lradius 32.8373
lwrist -13.5587
lhand -41.9021 -23.9657
lfingers 7.12502
lthumb -14.8009 5.48571
rfemur -243.142 -148.11 173.841
rtibia 110.514
rfoot 37.1643 10.1091
rtoes -9.20367
lfemur -64.3976 5.87345 -33.6576
ltibia 102.7
lfoot 27.67 11.1372
ltoes -2.9653
449
root -1.27264 1.75958 20.8688 -436.953 -164.051 13.8411
lowerback 24.7664 7.2434 -6.70463
upperback 24.0709 2.01323 -0.826354
thorax 12.8451 -3.15771 1.66896
lowerneck 7.96738 -11.0258 -2.4676
upperneck 12.7291 -17.0226 6.29878
head 3.71573 -8.98243 2.24548
rclavicle 1.11319e-014 3.49861e-014
rhumerus -169.622 -171.228 108.658
rradius 28.5447
rwrist -4.09378
rhand -5.77217 11.6294
rfingers 7.12502
rthumb 20.0514 -17.356
lclavicle 1.11319e-014 3.49861e-014
lhumerus -343.583 -25.1694 -289.874
lradius 32.5345
lwrist -13.9783
lhand -41.9518 -23.7818
lfingers 7.12502
lthumb -14.8487 5.66614
rfemur -242.244 -148.339 173.677
rtibia 109.989
rfoot 37.2151 9.81594
rtoes -8.88392
lfemur -63.8415 5.84926 -33.533
ltibia 102.498
lfoot 27.6886 11.1254
ltoes -3.31829
450
root -1.27594 1.7542 20.8931 -437.458 -164.131 14.1472
lowerback 24.6465 7.19219 -6.75
upperback 24.0325 2.00379 -0.81954
thorax 12.8541 -3.14903 1.70979
lowerneck 8.14705 -10.9808 -2.35044
upperneck 12.9966 -17.0494 6.3101
head 3.77341 -9.01774 2.23267
rclavicle 2.3059e-014 -4.77083e-014
rhumerus -169.742 -170.832 108.715
rradius 28.3131
rwrist -3.80862
rhand -5.85838 11.6982
rfingers 7.12502
rthumb 19.9685 -17.2958
lclavicle 2.3059e-014 -4.77083e-014
lhumerus -343.644 -24.9834 -289.821
lradius 32.2722
lwrist -14.3091
lhand -41.9951 -23.589
lfingers 7.12502
lthumb -14.8905 5.85583
rfemur -241.269 -148.6 173.515
rtibia 109.431
rfoot 37.2885 9.48788
rtoes -8.49978
lfemur -63.2225 5.83141 -33.3874
ltibia 102.289
lfoot 27.7112 11.0405
ltoes -3.86083
451
root -1.28028 1.74844 20.9183 -437.963 -164.214 14.4591
lowerback 24.5462 7.12816 -6.7844
upperback 23.9681 1.98532 -0.826972
thorax 12.8241 -3.13529 1.73311
lowerneck 8.34648 -10.9222 -2.23622
upperneck 13.306 -17.0738 6.33
head 3.84457 -9.05566 2.22291
rclavicle 3.10104e-014 1.90833e-014
rhumerus -169.932 -170.487 108.779
rradius 28.1481
rwrist -3.5725
rhand -5.94225 11.6978
rfingers 7.12502
rthumb 19.8879 -17.3046
lclavicle 3.10104e-014 1.90833e-014
lhumerus -343.724 -24.8126 -289.766
lradius 32.0143
lwrist -14.5803
lhand -42.1276 -23.6346
lfingers 7.12502
lthumb -15.0181 5.80079
rfemur -240.3 -148.852 173.362
rtibia 108.847
rfoot 37.3828 9.1774
rtoes -8.26434
lfemur -62.6022 5.78863 -33.2364
ltibia 102.074
lfoot 27.6941 11.0635
ltoes -4.20007
452
root -1.28479 1.7431 20.9448 -438.48 -164.31 14.794
lowerback 24.4273 7.05528 -6.83648
upperback 23.9163 1.95197 -0.810299
thorax 12.8181 -3.13634 1.79311
lowerneck 8.52591 -10.8613 -2.08052
upperneck 13.6125 -17.0773 6.27022
head 3.9039 -9.0808 2.18019
rclavicle 1.51076e-014 7.95139e-014
rhumerus -170.054 -170.152 108.851
rradius 27.9414
rwrist -3.32654
rhand -6.04513 11.7076
rfingers 7.12502
rthumb 19.789 -17.305
lclavicle 1.51076e-014 7.95139e-014
lhumerus -343.787 -24.5846 -289.676
lradius 31.7582
lwrist -14.8879
lhand -42.312 -23.7644
lfingers 7.12502
lthumb -15.1957 5.65764
rfemur -239.287 -149.105 173.222
rtibia 108.221
rfoot 37.5098 8.8207
rtoes -8.15571
lfemur -61.9721 5.72376 -33.0672
ltibia 101.85
lfoot 27.7169 11.0096
ltoes -4.75691
453
root -1.28976 1.73742 20.9711 -438.986 -164.401 15.1147
lowerback 24.2935 6.98676 -6.89806
upperback 23.8607 1.92721 -0.80313
thorax 12.8141 -3.13204 1.8472
lowerneck 8.6725 -10.7942 -1.92643
upperneck 13.9522 -17.0786 6.2089
head 3.98154 -9.10496 2.13358
rclavicle -1.82882e-014 1.11319e-013
rhumerus -170.208 -169.876 108.946
rradius 27.8137
rwrist -3.26665
rhand -6.14118 11.5991
rfingers 7.12502
rthumb 19.6966 -17.423
lclavicle -1.82882e-014 1.11319e-013
lhumerus -343.847 -24.3545 -289.585
lradius 31.5251
lwrist -15.1993
lhand -42.4848 -23.9716
lfingers 7.12502
lthumb -15.3621 5.43769
rfemur -238.307 -149.379 173.09
rtibia 107.577
rfoot 37.5738 8.58376
rtoes -8.483
lfemur -61.3515 5.66538 -32.9137
ltibia 101.634
lfoot 27.7095 11.046
ltoes -5.00098
454
root -1.29497 1.73298 20.9993 -439.498 -164.506 15.4439
lowerback 24.1476 6.92053 -6.94292
upperback 23.8048 1.91146 -0.800763
thorax 12.8158 -3.11958 1.88626
lowerneck 8.88609 -10.7476 -1.65145
upperneck 14.2416 -17.0863 6.08458
head 4.01081 -9.1309 2.05422
rclavicle -3.18055e-015 0
rhumerus -170.356 -169.56 109.019
rradius 27.6499
rwrist -3.23128
rhand -6.29794 11.5313
rfingers 7.12502
rthumb 19.5459 -17.5062
lclavicle -3.18055e-015 0
lhumerus -343.885 -24.158 -289.508
lradius 31.287
lwrist -15.5226
lhand -42.6701 -24.203
lfingers 7.12502
lthumb -15.5407 5.19257
rfemur -237.3 -149.682 172.98
rtibia 106.879
rfoot 37.6439 8.2933
rtoes -8.41248
lfemur -60.718 5.60277 -32.744
ltibia 101.418
lfoot 27.7076 11.0275
ltoes -5.37924
455
root -1.3011 1.72674 21.0279 -440.016 -164.629 15.7874
lowerback 23.9962 6.83284 -7.0043
upperback 23.7469 1.8665 -0.783981
thorax 12.8195 -3.12484 1.95399
lowerneck 9.06431 -10.676 -1.48474
upperneck 14.5625 -17.0747 5.98754
head 4.07092 -9.15038 1.99711
rclavicle 3.18055e-014 -6.36111e-014
rhumerus -170.469 -169.342 109.114
rradius 27.5039
rwrist -3.29507
rhand -6.40381 11.4355
rfingers 7.12502
rthumb 19.4441 -17.6123
lclavicle 3.18055e-014 -6.36111e-014
lhumerus -343.937 -23.8731 -289.398
lradius 31.0582
lwrist -15.9246
lhand -42.8509 -24.3489
lfingers 7.12502
lthumb -15.7148 5.03305
rfemur -236.283 -149.977 172.909
rtibia 106.142
rfoot 37.7382 8.11596
rtoes -8.46433
lfemur -60.1041 5.51216 -32.557
ltibia 101.222
lfoot 27.6726 11.0874
ltoes -5.58733
456
root -1.30622 1.72101 21.0559 -440.547 -164.746 16.1037
lowerback 23.8564 6.77521 -7.07686
upperback 23.6864 1.85702 -0.778397
thorax 12.8116 -3.11316 2.01054
lowerneck 9.30499 -10.619 -1.23526
upperneck 14.8289 -17.076 5.90363
head 4.09504 -9.1762 1.93747
rclavicle 3.89618e-014 -3.18055e-015
rhumerus -170.625 -169.05 109.185
rradius 27.3851
rwrist -3.32232
rhand -6.50144 11.3697
rfingers 7.12502
rthumb 19.3503 -17.6876
lclavicle 3.89618e-014 -3.18055e-015
lhumerus -343.94 -23.674 -289.317
lradius 30.8212
lwrist -16.265
lhand -43.0102 -24.4167
lfingers 7.12502
lthumb -15.8682 4.95307
rfemur -235.249 -150.294 172.832
rtibia 105.375
rfoot 37.8357 7.93991
rtoes -8.59468
lfemur -59.4573 5.45143 -32.3745
ltibia 101.027
lfoot 27.633 11.1217
ltoes -5.79062
